<svg xmlns="http://www.w3.org/2000/svg" version="1.1" xmlns:xlink="http://www.w3.org/1999/xlink" xmlns:svgjs="http://svgjs.dev/svgjs" width="1000" height="1000"><style>
    #light-icon {
      display: inline;
    }
    #dark-icon {
      display: none;
    }

    @media (prefers-color-scheme: dark) {
      #light-icon {
        display: none;
      }
      #dark-icon {
        display: inline;
      }
    }
  </style><g id="light-icon"><svg xmlns="http://www.w3.org/2000/svg" version="1.1" xmlns:xlink="http://www.w3.org/1999/xlink" xmlns:svgjs="http://svgjs.dev/svgjs" width="1000" height="1000"><g><g transform="matrix(2.5,0,0,2.5,0,0)"><svg xmlns="http://www.w3.org/2000/svg" version="1.1" xmlns:xlink="http://www.w3.org/1999/xlink" xmlns:svgjs="http://svgjs.dev/svgjs" width="400" height="400"><svg width="400" height="400" xmlns="http://www.w3.org/2000/svg" xmlns:xlink="http://www.w3.org/1999/xlink" overflow="hidden"><g transform="translate(-440 -160)"><path d="M716 284 829.264 284" stroke="#000000" stroke-width="20" stroke-linecap="round" stroke-miterlimit="8" fill="none" fill-rule="evenodd"></path><path d="M0 0 56.6319 75.1833" stroke="#000000" stroke-width="20" stroke-linecap="round" stroke-miterlimit="8" fill="none" fill-rule="evenodd" transform="matrix(1 0 0 -1 772 359.183)"></path><path d="M772 360 828.632 435.183" stroke="#000000" stroke-width="20" stroke-linecap="round" stroke-miterlimit="8" fill="none" fill-rule="evenodd"></path><path d="M716 436 829.264 436" stroke="#000000" stroke-width="20" stroke-linecap="round" stroke-miterlimit="8" fill="none" fill-rule="evenodd"></path><path d="M716 436 716 549.386" stroke="#000000" stroke-width="20" stroke-linecap="round" stroke-miterlimit="8" fill="none" fill-rule="evenodd"></path><path d="M0 0 56.6929 75.1024" stroke="#000000" stroke-width="20" stroke-linecap="round" stroke-miterlimit="8" fill="none" fill-rule="evenodd" transform="matrix(6.12323e-17 1 1 -6.12323e-17 640 492)"></path><path d="M640.102 492 565 548.693" stroke="#000000" stroke-width="20" stroke-linecap="round" stroke-miterlimit="8" fill="none" fill-rule="evenodd"></path><path d="M564 436 564 549.386" stroke="#000000" stroke-width="20" stroke-linecap="round" stroke-miterlimit="8" fill="none" fill-rule="evenodd"></path><path d="M564.264 436 451 436" stroke="#000000" stroke-width="20" stroke-linecap="round" stroke-miterlimit="8" fill="none" fill-rule="evenodd"></path><path d="M0 0 56.6319 75.1833" stroke="#000000" stroke-width="20" stroke-linecap="round" stroke-miterlimit="8" fill="none" fill-rule="evenodd" transform="matrix(-1 1.22465e-16 1.22465e-16 1 507.632 360)"></path><path d="M507.632 360.183 451 285" stroke="#000000" stroke-width="20" stroke-linecap="round" stroke-miterlimit="8" fill="none" fill-rule="evenodd"></path><path d="M564.264 284 451 284" stroke="#000000" stroke-width="20" stroke-linecap="round" stroke-miterlimit="8" fill="none" fill-rule="evenodd"></path><path d="M565 284.386 565 171" stroke="#000000" stroke-width="20" stroke-linecap="round" stroke-miterlimit="8" fill="none" fill-rule="evenodd"></path><path d="M0 0 56.6929 75.1024" stroke="#000000" stroke-width="20" stroke-linecap="round" stroke-miterlimit="8" fill="none" fill-rule="evenodd" transform="matrix(-1.83697e-16 -1 -1 1.83697e-16 640.102 227.693)"></path><path d="M640 227.693 715.102 171" stroke="#000000" stroke-width="20" stroke-linecap="round" stroke-miterlimit="8" fill="none" fill-rule="evenodd"></path><path d="M716 284.386 716 171" stroke="#000000" stroke-width="20" stroke-linecap="round" stroke-miterlimit="8" fill="none" fill-rule="evenodd"></path></g></svg></svg></g></g></svg></g><g id="dark-icon"><svg xmlns="http://www.w3.org/2000/svg" version="1.1" xmlns:xlink="http://www.w3.org/1999/xlink" xmlns:svgjs="http://svgjs.dev/svgjs" width="1000" height="1000"><g><g transform="matrix(2.5,0,0,2.5,0,0)"><svg xmlns="http://www.w3.org/2000/svg" version="1.1" xmlns:xlink="http://www.w3.org/1999/xlink" xmlns:svgjs="http://svgjs.dev/svgjs" width="400" height="400"><svg width="400" height="400" xmlns="http://www.w3.org/2000/svg" xmlns:xlink="http://www.w3.org/1999/xlink" overflow="hidden"><g transform="translate(-440 -160)"><path d="M716 284 829.264 284" stroke="#FFFFFF" stroke-width="20" stroke-linecap="round" stroke-miterlimit="8" fill="none" fill-rule="evenodd"></path><path d="M0 0 56.6319 75.1833" stroke="#FFFFFF" stroke-width="20" stroke-linecap="round" stroke-miterlimit="8" fill="none" fill-rule="evenodd" transform="matrix(1 0 0 -1 772 359.183)"></path><path d="M772 360 828.632 435.183" stroke="#FFFFFF" stroke-width="20" stroke-linecap="round" stroke-miterlimit="8" fill="none" fill-rule="evenodd"></path><path d="M716 436 829.264 436" stroke="#FFFFFF" stroke-width="20" stroke-linecap="round" stroke-miterlimit="8" fill="none" fill-rule="evenodd"></path><path d="M716 436 716 549.386" stroke="#FFFFFF" stroke-width="20" stroke-linecap="round" stroke-miterlimit="8" fill="none" fill-rule="evenodd"></path><path d="M0 0 56.6929 75.1024" stroke="#FFFFFF" stroke-width="20" stroke-linecap="round" stroke-miterlimit="8" fill="none" fill-rule="evenodd" transform="matrix(6.12323e-17 1 1 -6.12323e-17 640 492)"></path><path d="M640.102 492 565 548.693" stroke="#FFFFFF" stroke-width="20" stroke-linecap="round" stroke-miterlimit="8" fill="none" fill-rule="evenodd"></path><path d="M564 436 564 549.386" stroke="#FFFFFF" stroke-width="20" stroke-linecap="round" stroke-miterlimit="8" fill="none" fill-rule="evenodd"></path><path d="M564.264 436 451 436" stroke="#FFFFFF" stroke-width="20" stroke-linecap="round" stroke-miterlimit="8" fill="none" fill-rule="evenodd"></path><path d="M0 0 56.6319 75.1833" stroke="#FFFFFF" stroke-width="20" stroke-linecap="round" stroke-miterlimit="8" fill="none" fill-rule="evenodd" transform="matrix(-1 1.22465e-16 1.22465e-16 1 507.632 360)"></path><path d="M507.632 360.183 451 285" stroke="#FFFFFF" stroke-width="20" stroke-linecap="round" stroke-miterlimit="8" fill="none" fill-rule="evenodd"></path><path d="M564.264 284 451 284" stroke="#FFFFFF" stroke-width="20" stroke-linecap="round" stroke-miterlimit="8" fill="none" fill-rule="evenodd"></path><path d="M565 284.386 565 171" stroke="#FFFFFF" stroke-width="20" stroke-linecap="round" stroke-miterlimit="8" fill="none" fill-rule="evenodd"></path><path d="M0 0 56.6929 75.1024" stroke="#FFFFFF" stroke-width="20" stroke-linecap="round" stroke-miterlimit="8" fill="none" fill-rule="evenodd" transform="matrix(-1.83697e-16 -1 -1 1.83697e-16 640.102 227.693)"></path><path d="M640 227.693 715.102 171" stroke="#FFFFFF" stroke-width="20" stroke-linecap="round" stroke-miterlimit="8" fill="none" fill-rule="evenodd"></path><path d="M716 284.386 716 171" stroke="#FFFFFF" stroke-width="20" stroke-linecap="round" stroke-miterlimit="8" fill="none" fill-rule="evenodd"></path></g></svg></svg></g></g></svg></g></svg>